<svg width="197" height="197" viewBox="0 0 197 197" fill="none" xmlns="http://www.w3.org/2000/svg">
<path fill-rule="evenodd" clip-rule="evenodd" d="M197 98.5C197 124.624 186.622 149.678 168.15 168.15C149.678 186.622 124.624 197 98.5 197C72.3762 197 47.3223 186.622 28.85 168.15C10.3777 149.678 0 124.624 0 98.5C0 72.3762 10.3777 47.3223 28.85 28.85C47.3223 10.3777 72.3762 0 98.5 0C124.624 0 149.678 10.3777 168.15 28.85C186.622 47.3223 197 72.3762 197 98.5ZM110.812 147.75C110.812 151.015 109.515 154.147 107.206 156.456C104.897 158.765 101.765 160.062 98.5 160.062C95.2345 160.062 92.1028 158.765 89.7937 156.456C87.4847 154.147 86.1875 151.015 86.1875 147.75C86.1875 144.485 87.4847 141.353 89.7937 139.044C92.1028 136.735 95.2345 135.438 98.5 135.438C101.765 135.438 104.897 136.735 107.206 139.044C109.515 141.353 110.812 144.485 110.812 147.75ZM98.5 36.9375C95.2345 36.9375 92.1028 38.2347 89.7937 40.5438C87.4847 42.8528 86.1875 45.9845 86.1875 49.25V98.5C86.1875 101.765 87.4847 104.897 89.7937 107.206C92.1028 109.515 95.2345 110.812 98.5 110.812C101.765 110.812 104.897 109.515 107.206 107.206C109.515 104.897 110.812 101.765 110.812 98.5V49.25C110.812 45.9845 109.515 42.8528 107.206 40.5438C104.897 38.2347 101.765 36.9375 98.5 36.9375Z" fill="#333333"/>
</svg>
